<svg width="46" height="46" viewBox="0 0 46 46" fill="none" xmlns="http://www.w3.org/2000/svg">
<path d="M25.1248 45.4728H20.8378C20.2418 45.467 19.7444 44.9662 19.7444 44.3691C19.7444 43.7686 20.2476 43.2654 20.8481 43.2654H25.1356C25.7314 43.2714 26.2285 43.7721 26.2285 44.3691C26.2285 44.9696 25.7254 45.4728 25.1248 45.4728ZM18.7444 44.3691C18.7444 44.7724 18.8608 45.151 19.0614 45.4728H16.5718C10.8238 45.4728 6.8409 44.2429 4.28548 41.6875C1.73007 39.1321 0.50019 35.1492 0.50019 29.4012V26.9115C0.821954 27.1121 1.20047 27.2284 1.6037 27.2284C2.00709 27.2284 2.38575 27.112 2.70759 26.9112V29.4012C2.70759 34.3652 3.58535 37.8791 5.83959 40.1334C8.09384 42.3876 11.6078 43.2654 16.5718 43.2654H19.0615C18.8608 43.5872 18.7444 43.9658 18.7444 44.3691ZM45.4728 26.9114L45.4728 29.4012C45.4728 35.1492 44.2429 39.1321 41.6875 41.6875C39.1321 44.2429 35.1492 45.4728 29.4012 45.4728H26.9114C27.1122 45.151 27.2285 44.7724 27.2285 44.3691C27.2285 43.9658 27.1122 43.5872 26.9115 43.2654H29.4012C34.3652 43.2654 37.8791 42.3876 40.1334 40.1334C42.3876 37.8792 43.2654 34.3652 43.2654 29.4012L43.2654 26.9112C43.5872 27.1119 43.9659 27.2283 44.3693 27.2283C44.7725 27.2283 45.151 27.112 45.4728 26.9114ZM45.4728 25.141C45.4638 25.7343 44.9643 26.2283 44.3693 26.2283C43.7687 26.2283 43.2655 25.7252 43.2655 25.1246V16.5716C43.2655 11.6076 42.3878 8.09365 40.1335 5.83941C37.8793 3.58516 34.3654 2.7074 29.4014 2.7074H16.5718C11.6078 2.7074 8.09384 3.58516 5.83959 5.83941C3.58535 8.09365 2.70759 11.6076 2.70759 16.5716L2.7074 25.1247C2.7074 25.7252 2.20425 26.2284 1.6037 26.2284C1.0099 26.2284 0.511313 25.7365 0.50019 25.1449V16.5716C0.50019 10.8236 1.73007 6.84071 4.28548 4.28529C6.8409 1.72988 10.8238 0.5 16.5718 0.5H29.4014C35.1494 0.5 39.1322 1.72988 41.6877 4.28529C44.2431 6.84071 45.4729 10.8236 45.4729 16.5716L45.4728 25.141Z" fill="#F9F9F9" stroke="white"/>
<path d="M12.3263 29.1789L12.3264 29.1788L12.3193 29.1735C11.839 28.8096 11.7454 28.1204 12.1155 27.6302L17.2019 21.0264C17.7435 20.3362 18.5027 19.8939 19.3722 19.7829C20.2425 19.6718 21.0924 19.9114 21.7798 20.4499C21.7799 20.45 21.7801 20.4501 21.7802 20.4502L25.6858 23.5235C25.9757 23.7656 26.303 23.7481 26.3902 23.7435C26.3982 23.7431 26.4042 23.7427 26.408 23.7427C26.6499 23.7427 26.9463 23.6268 27.1687 23.3325L32.106 16.9632L32.1061 16.9632L32.1094 16.9588C32.4731 16.4787 33.1584 16.387 33.6466 16.7717L33.6465 16.7717L33.6541 16.7775C34.1342 17.1412 34.2259 17.8264 33.8413 18.3147L33.8388 18.3178L28.9011 24.6877C28.9009 24.688 28.9006 24.6883 28.9004 24.6886C28.3584 25.3796 27.6018 25.8185 26.74 25.9102L26.7399 25.91L26.7282 25.9116C25.878 26.0225 25.0101 25.7815 24.3481 25.2482L24.3482 25.2482L24.3437 25.2447L20.4375 22.171C20.168 21.9453 19.8605 21.9189 19.6538 21.954C19.4243 21.9721 19.1579 22.0922 18.9539 22.3625L13.8665 28.9675L13.8596 28.9766L13.853 28.9859C13.6562 29.267 13.346 29.4141 13.001 29.4141C12.7664 29.4141 12.5341 29.3421 12.3263 29.1789Z" fill="#F9F9F9" stroke="white"/>
</svg>
