<svg width="46" height="47" viewBox="0 0 46 47" fill="none" xmlns="http://www.w3.org/2000/svg">
<path d="M16.1466 34.7831L16.1437 34.782C15.7471 34.6262 15.4767 34.2196 15.4767 33.7711V20.9339C15.4767 20.3328 15.9803 19.8292 16.5813 19.8292C17.1824 19.8292 17.686 20.3328 17.686 20.9339V29.8985V31.1056L18.5395 30.2521L20.08 28.7116C20.5052 28.2864 21.2156 28.2864 21.6408 28.7116C22.066 29.1368 22.066 29.8472 21.6408 30.2724L17.3617 34.5515C17.1574 34.7558 16.8573 34.8757 16.5813 34.8757C16.4422 34.8757 16.3128 34.8496 16.1466 34.7831Z" fill="#F9F9F9" stroke="white"/>
<path d="M16.5803 34.8756C16.2992 34.8756 16.0221 34.7736 15.7999 34.5513L11.5208 30.2723C11.0956 29.8471 11.0956 29.1367 11.5208 28.7115C11.946 28.2863 12.6564 28.2863 13.0816 28.7115L17.3607 32.9906C17.7859 33.4158 17.7859 34.1261 17.3607 34.5513C17.1385 34.7736 16.8613 34.8756 16.5803 34.8756Z" fill="#F9F9F9" stroke="white"/>
<path d="M29.4186 45.5735H16.5814C10.83 45.5735 6.84463 44.3429 4.28762 41.7859C1.73061 39.2289 0.5 35.2435 0.5 29.4921V16.6549C0.5 10.9034 1.73061 6.91812 4.28762 4.36111C6.84463 1.8041 10.83 0.573486 16.5814 0.573486H27.2791C27.8801 0.573486 28.3837 1.07707 28.3837 1.67814C28.3837 2.2792 27.8801 2.78279 27.2791 2.78279H16.5814C11.6145 2.78279 8.09857 3.66107 5.84307 5.91656C3.58758 8.17205 2.7093 11.688 2.7093 16.6549V29.4921C2.7093 34.459 3.58758 37.9749 5.84307 40.2304C8.09857 42.4859 11.6145 43.3642 16.5814 43.3642H29.4186C34.3855 43.3642 37.9014 42.4859 40.1569 40.2304C42.4124 37.9749 43.2907 34.459 43.2907 29.4921V18.7944C43.2907 18.1934 43.7943 17.6898 44.3954 17.6898C44.9964 17.6898 45.5 18.1933 45.5 18.7944V29.4921C45.5 35.2435 44.2694 39.2289 41.7124 41.7859C39.1554 44.3429 35.17 45.5735 29.4186 45.5735Z" fill="#F9F9F9" stroke="white"/>
<path d="M26.8415 0.66725L26.8486 0.664456L26.8556 0.661447C27.2543 0.490562 27.7263 0.582659 28.0639 0.902209L45.1758 18.014C45.4846 18.3228 45.586 18.8121 45.4121 19.218C45.2325 19.6369 44.8332 19.8991 44.3954 19.8991H35.8372C32.2245 19.8991 29.8504 19.1931 28.3654 17.7081C26.8805 16.2231 26.1744 13.849 26.1744 10.2363V1.67815C26.1744 1.22964 26.4449 0.823052 26.8415 0.66725ZM29.2373 5.19716L28.3837 4.3436V5.55071V10.2363C28.3837 12.9966 28.7308 14.9304 29.9369 16.1366C31.1431 17.3427 33.0769 17.6898 35.8372 17.6898H40.5228H41.7299L40.8764 16.8362L29.2373 5.19716Z" fill="#F9F9F9" stroke="white"/>
</svg>
