<svg width="46" height="47" viewBox="0 0 46 47" fill="none" xmlns="http://www.w3.org/2000/svg">
<path d="M17.3131 19.6661L17.316 19.6672C17.7126 19.823 17.983 20.2296 17.983 20.6781L17.983 33.5153C17.983 34.1164 17.4794 34.62 16.8784 34.62C16.2773 34.62 15.7737 34.1164 15.7737 33.5153L15.7737 24.5507L15.7737 23.3436L14.9202 24.1971L13.3797 25.7376C12.9545 26.1628 12.2441 26.1628 11.8189 25.7376C11.3937 25.3124 11.3937 24.602 11.8189 24.1768L16.098 19.8977C16.3023 19.6934 16.6025 19.5735 16.8784 19.5735C17.0175 19.5735 17.1469 19.5996 17.3131 19.6661Z" fill="#F9F9F9" stroke="white"/>
<path d="M16.5993 19.5735C16.8803 19.5735 17.1575 19.6755 17.3797 19.8977L21.6588 24.1768C22.084 24.602 22.084 25.3124 21.6588 25.7376C21.2336 26.1628 20.5232 26.1628 20.098 25.7376L15.8189 21.4585C15.3937 21.0333 15.3937 20.3229 15.8189 19.8977C16.0411 19.6755 16.3182 19.5735 16.5993 19.5735Z" fill="#F9F9F9" stroke="white"/>
<path d="M29.4186 45.5735H16.5814C10.83 45.5735 6.84463 44.3429 4.28762 41.7859C1.73061 39.2289 0.5 35.2435 0.5 29.4921V16.6549C0.5 10.9034 1.73061 6.91812 4.28762 4.36111C6.84463 1.8041 10.83 0.573486 16.5814 0.573486H27.2791C27.8801 0.573486 28.3837 1.07707 28.3837 1.67814C28.3837 2.2792 27.8801 2.78279 27.2791 2.78279H16.5814C11.6145 2.78279 8.09857 3.66107 5.84307 5.91656C3.58758 8.17205 2.7093 11.688 2.7093 16.6549V29.4921C2.7093 34.459 3.58758 37.9749 5.84307 40.2304C8.09857 42.4859 11.6145 43.3642 16.5814 43.3642H29.4186C34.3855 43.3642 37.9014 42.4859 40.1569 40.2304C42.4124 37.9749 43.2907 34.459 43.2907 29.4921V18.7944C43.2907 18.1934 43.7943 17.6898 44.3954 17.6898C44.9964 17.6898 45.5 18.1933 45.5 18.7944V29.4921C45.5 35.2435 44.2694 39.2289 41.7124 41.7859C39.1554 44.3429 35.17 45.5735 29.4186 45.5735Z" fill="#F9F9F9" stroke="white"/>
<path d="M26.8415 0.66725L26.8486 0.664456L26.8556 0.661447C27.2543 0.490562 27.7263 0.582659 28.0639 0.902209L45.1758 18.014C45.4846 18.3228 45.586 18.8121 45.4121 19.218C45.2325 19.6369 44.8332 19.8991 44.3954 19.8991H35.8372C32.2245 19.8991 29.8504 19.1931 28.3654 17.7081C26.8805 16.2231 26.1744 13.849 26.1744 10.2363V1.67815C26.1744 1.22964 26.4449 0.823052 26.8415 0.66725ZM29.2373 5.19716L28.3837 4.3436V5.55071V10.2363C28.3837 12.9966 28.7308 14.9304 29.9369 16.1366C31.1431 17.3427 33.0769 17.6898 35.8372 17.6898H40.5228H41.7299L40.8764 16.8362L29.2373 5.19716Z" fill="#F9F9F9" stroke="white"/>
</svg>
