<svg width="39" height="37" viewBox="0 0 39 37" fill="none" xmlns="http://www.w3.org/2000/svg">
<path d="M19.5405 23.8922C22.4468 23.8922 24.8027 21.5363 24.8027 18.63C24.8027 15.7237 22.4468 13.3678 19.5405 13.3678C16.6342 13.3678 14.2783 15.7237 14.2783 18.63C14.2783 21.5363 16.6342 23.8922 19.5405 23.8922Z" stroke="#5A5A5A" stroke-width="2.5" stroke-miterlimit="10" stroke-linecap="round" stroke-linejoin="round"/>
<path d="M2 20.1734V17.0862C2 15.262 3.49095 13.7536 5.33271 13.7536C8.50756 13.7536 9.80557 11.5084 8.20937 8.75453C7.29726 7.17587 7.84102 5.12362 9.43721 4.21151L12.4717 2.47499C13.8574 1.65058 15.6466 2.14172 16.471 3.52743L16.6639 3.8607C18.2426 6.61457 20.8386 6.61457 22.4348 3.8607L22.6277 3.52743C23.4522 2.14172 25.2413 1.65058 26.627 2.47499L29.6615 4.21151C31.2577 5.12362 31.8015 7.17587 30.8894 8.75453C29.2932 11.5084 30.5912 13.7536 33.766 13.7536C35.5902 13.7536 37.0987 15.2445 37.0987 17.0862V20.1734C37.0987 21.9976 35.6078 23.5061 33.766 23.5061C30.5912 23.5061 29.2932 25.7513 30.8894 28.5052C31.8015 30.1014 31.2577 32.1361 29.6615 33.0482L26.627 34.7847C25.2413 35.6091 23.4522 35.118 22.6277 33.7323L22.4348 33.399C20.8561 30.6451 18.2601 30.6451 16.6639 33.399L16.471 33.7323C15.6466 35.118 13.8574 35.6091 12.4717 34.7847L9.43721 33.0482C7.84102 32.1361 7.29726 30.0838 8.20937 28.5052C9.80557 25.7513 8.50756 23.5061 5.33271 23.5061C3.49095 23.5061 2 21.9976 2 20.1734Z" stroke="#5A5A5A" stroke-width="2.5" stroke-miterlimit="10" stroke-linecap="round" stroke-linejoin="round"/>
</svg>
