<svg width="46" height="46" viewBox="0 0 46 46" fill="none" xmlns="http://www.w3.org/2000/svg">
<path d="M11.5 15C11.5 14.7239 11.7239 14.5 12 14.5H34C34.2761 14.5 34.5 14.7239 34.5 15V32C34.5 32.2761 34.2761 32.5 34 32.5H12C11.7239 32.5 11.5 32.2761 11.5 32V15ZM28.3 18.5632C28.3 17.7348 27.6284 17.0632 26.8 17.0632H24.3997C23.5713 17.0632 22.8997 17.7348 22.8997 18.5632V20.5221C22.8997 21.3505 23.5713 22.0221 24.3997 22.0221H26.8C27.6284 22.0221 28.3 21.3505 28.3 20.5221V18.5632ZM32.7992 27.1662C33.6277 27.1662 34.2992 26.4946 34.2992 25.6662V23.7088C34.2992 22.8804 33.6277 22.2088 32.7992 22.2088H29.9992C29.1708 22.2088 28.4992 22.8804 28.4992 23.7088V25.6662C28.4992 26.4946 29.1708 27.1662 29.9992 27.1662H32.7992ZM26.8 27.1662C27.6284 27.1662 28.3 26.4946 28.3 25.6662V23.7088C28.3 22.8804 27.6284 22.2088 26.8 22.2088H24.3997C23.5713 22.2088 22.8997 22.8804 22.8997 23.7088V25.6662C22.8997 26.4946 23.5713 27.1662 24.3997 27.1662H26.8ZM13.1992 22.2088C12.3708 22.2088 11.6992 22.8804 11.6992 23.7088V25.6677C11.6992 26.4961 12.3708 27.1677 13.1992 27.1677H21.199C22.0274 27.1677 22.699 26.4961 22.699 25.6677V23.7088C22.699 22.8804 22.0274 22.2088 21.199 22.2088H13.1992ZM22.699 18.5632C22.699 17.7348 22.0274 17.0632 21.199 17.0632H13.1992C12.3708 17.0632 11.6992 17.7348 11.6992 18.5632V20.5221C11.6992 21.3505 12.3708 22.0221 13.1992 22.0221H21.199C22.0274 22.0221 22.699 21.3505 22.699 20.5221V18.5632ZM11.6992 30.8118C11.6992 31.6402 12.3708 32.3118 13.1992 32.3118H21.199C22.0274 32.3118 22.699 31.6402 22.699 30.8118V28.8529C22.699 28.0245 22.0274 27.3529 21.199 27.3529H13.1992C12.3708 27.3529 11.6992 28.0245 11.6992 28.8529V30.8118ZM22.8997 30.8118C22.8997 31.6402 23.5713 32.3118 24.3997 32.3118H26.8C27.6284 32.3118 28.3 31.6402 28.3 30.8118V28.8529C28.3 28.0245 27.6284 27.3529 26.8 27.3529H24.3997C23.5713 27.3529 22.8997 28.0245 22.8997 28.8529V30.8118ZM28.4992 30.8118C28.4992 31.6402 29.1708 32.3118 29.9992 32.3118H32.7992C33.6277 32.3118 34.2992 31.6402 34.2992 30.8118V28.8529C34.2992 28.0245 33.6277 27.3529 32.7992 27.3529H29.9992C29.1708 27.3529 28.4992 28.0245 28.4992 28.8529V30.8118ZM32.7992 22.0206C33.6277 22.0206 34.2992 21.349 34.2992 20.5206V18.5632C34.2992 17.7348 33.6277 17.0632 32.7992 17.0632H29.9992C29.1708 17.0632 28.4992 17.7348 28.4992 18.5632V20.5206C28.4992 21.349 29.1708 22.0206 29.9992 22.0206H32.7992Z" fill="#F9F9F9" stroke="white"/>
<path d="M25.1248 45.4728H20.8378C20.2418 45.467 19.7444 44.9662 19.7444 44.3691C19.7444 43.7686 20.2476 43.2654 20.8481 43.2654H25.1356C25.7314 43.2714 26.2285 43.7721 26.2285 44.3691C26.2285 44.9696 25.7254 45.4728 25.1248 45.4728ZM18.7444 44.3691C18.7444 44.7724 18.8608 45.151 19.0614 45.4728H16.5718C10.8238 45.4728 6.8409 44.2429 4.28548 41.6875C1.73007 39.1321 0.50019 35.1492 0.50019 29.4012V26.9115C0.821954 27.1121 1.20047 27.2284 1.6037 27.2284C2.00709 27.2284 2.38575 27.112 2.70759 26.9112V29.4012C2.70759 34.3652 3.58535 37.8791 5.83959 40.1334C8.09384 42.3876 11.6078 43.2654 16.5718 43.2654H19.0615C18.8608 43.5872 18.7444 43.9658 18.7444 44.3691ZM45.4728 26.9114L45.4728 29.4012C45.4728 35.1492 44.2429 39.1321 41.6875 41.6875C39.1321 44.2429 35.1492 45.4728 29.4012 45.4728H26.9114C27.1122 45.151 27.2285 44.7724 27.2285 44.3691C27.2285 43.9658 27.1122 43.5872 26.9115 43.2654H29.4012C34.3652 43.2654 37.8791 42.3876 40.1334 40.1334C42.3876 37.8792 43.2654 34.3652 43.2654 29.4012L43.2654 26.9112C43.5872 27.1119 43.9659 27.2283 44.3693 27.2283C44.7725 27.2283 45.151 27.112 45.4728 26.9114ZM45.4728 25.141C45.4638 25.7343 44.9643 26.2283 44.3693 26.2283C43.7687 26.2283 43.2655 25.7252 43.2655 25.1246V16.5716C43.2655 11.6076 42.3878 8.09365 40.1335 5.83941C37.8793 3.58516 34.3654 2.7074 29.4014 2.7074H16.5718C11.6078 2.7074 8.09384 3.58516 5.83959 5.83941C3.58535 8.09365 2.70759 11.6076 2.70759 16.5716L2.7074 25.1247C2.7074 25.7252 2.20425 26.2284 1.6037 26.2284C1.0099 26.2284 0.511313 25.7365 0.50019 25.1449V16.5716C0.50019 10.8236 1.73007 6.84071 4.28548 4.28529C6.8409 1.72988 10.8238 0.5 16.5718 0.5H29.4014C35.1494 0.5 39.1322 1.72988 41.6877 4.28529C44.2431 6.84071 45.4729 10.8236 45.4729 16.5716L45.4728 25.141Z" fill="#F9F9F9" stroke="white"/>
</svg>
